<mxfile host="app.diagrams.net" modified="2024-06-19T01:43:57.590Z" agent="Mozilla/5.0 (Macintosh; Intel Mac OS X 10_15_7) AppleWebKit/537.36 (KHTML, like Gecko) Chrome/125.0.0.0 Safari/537.36" etag="_X918YUHWy3nLQKSur9M" version="24.5.5" type="device">
  <diagram name="Page-1" id="Jt2soxc2ASUDz009ubVp">
    <mxGraphModel dx="839" dy="629" grid="1" gridSize="10" guides="1" tooltips="1" connect="1" arrows="1" fold="1" page="1" pageScale="1" pageWidth="850" pageHeight="1100" math="0" shadow="0">
      <root>
        <mxCell id="0" />
        <mxCell id="1" parent="0" />
        <mxCell id="j8VI0ms2kXu3fHtH9IBc-1" value="AWS Cloud" style="points=[[0,0],[0.25,0],[0.5,0],[0.75,0],[1,0],[1,0.25],[1,0.5],[1,0.75],[1,1],[0.75,1],[0.5,1],[0.25,1],[0,1],[0,0.75],[0,0.5],[0,0.25]];outlineConnect=0;gradientColor=none;html=1;whiteSpace=wrap;fontSize=12;fontStyle=0;container=1;pointerEvents=0;collapsible=0;recursiveResize=0;shape=mxgraph.aws4.group;grIcon=mxgraph.aws4.group_aws_cloud_alt;strokeColor=#232F3E;fillColor=none;verticalAlign=top;align=left;spacingLeft=30;fontColor=#232F3E;dashed=0;" vertex="1" parent="1">
          <mxGeometry x="180" y="70" width="1110" height="690" as="geometry" />
        </mxCell>
        <mxCell id="j8VI0ms2kXu3fHtH9IBc-2" value="us-east-1" style="points=[[0,0],[0.25,0],[0.5,0],[0.75,0],[1,0],[1,0.25],[1,0.5],[1,0.75],[1,1],[0.75,1],[0.5,1],[0.25,1],[0,1],[0,0.75],[0,0.5],[0,0.25]];outlineConnect=0;gradientColor=none;html=1;whiteSpace=wrap;fontSize=12;fontStyle=0;container=1;pointerEvents=0;collapsible=0;recursiveResize=0;shape=mxgraph.aws4.group;grIcon=mxgraph.aws4.group_region;strokeColor=#00A4A6;fillColor=none;verticalAlign=top;align=left;spacingLeft=30;fontColor=#147EBA;dashed=1;" vertex="1" parent="j8VI0ms2kXu3fHtH9IBc-1">
          <mxGeometry x="180" y="50" width="910" height="630" as="geometry" />
        </mxCell>
        <mxCell id="j8VI0ms2kXu3fHtH9IBc-3" value="VPC" style="points=[[0,0],[0.25,0],[0.5,0],[0.75,0],[1,0],[1,0.25],[1,0.5],[1,0.75],[1,1],[0.75,1],[0.5,1],[0.25,1],[0,1],[0,0.75],[0,0.5],[0,0.25]];outlineConnect=0;gradientColor=none;html=1;whiteSpace=wrap;fontSize=12;fontStyle=0;container=1;pointerEvents=0;collapsible=0;recursiveResize=0;shape=mxgraph.aws4.group;grIcon=mxgraph.aws4.group_vpc2;strokeColor=#8C4FFF;fillColor=none;verticalAlign=top;align=left;spacingLeft=30;fontColor=#AAB7B8;dashed=0;" vertex="1" parent="j8VI0ms2kXu3fHtH9IBc-2">
          <mxGeometry x="100" y="20" width="800" height="590" as="geometry" />
        </mxCell>
        <mxCell id="j8VI0ms2kXu3fHtH9IBc-4" style="edgeStyle=orthogonalEdgeStyle;rounded=0;orthogonalLoop=1;jettySize=auto;html=1;entryX=0;entryY=0.5;entryDx=0;entryDy=0;" edge="1" parent="j8VI0ms2kXu3fHtH9IBc-3" source="j8VI0ms2kXu3fHtH9IBc-5" target="j8VI0ms2kXu3fHtH9IBc-22">
          <mxGeometry relative="1" as="geometry" />
        </mxCell>
        <mxCell id="j8VI0ms2kXu3fHtH9IBc-5" value="" style="sketch=0;outlineConnect=0;fontColor=#232F3E;gradientColor=none;fillColor=#8C4FFF;strokeColor=none;dashed=0;verticalLabelPosition=bottom;verticalAlign=top;align=center;html=1;fontSize=12;fontStyle=0;aspect=fixed;pointerEvents=1;shape=mxgraph.aws4.application_load_balancer;" vertex="1" parent="j8VI0ms2kXu3fHtH9IBc-3">
          <mxGeometry x="20" y="235" width="90" height="90" as="geometry" />
        </mxCell>
        <mxCell id="j8VI0ms2kXu3fHtH9IBc-6" value="Availability Zone us-east-1a" style="fillColor=none;strokeColor=#147EBA;dashed=1;verticalAlign=top;fontStyle=0;fontColor=#147EBA;whiteSpace=wrap;html=1;" vertex="1" parent="j8VI0ms2kXu3fHtH9IBc-3">
          <mxGeometry x="230" y="10" width="550" height="230" as="geometry" />
        </mxCell>
        <mxCell id="j8VI0ms2kXu3fHtH9IBc-7" value="Public subnet" style="points=[[0,0],[0.25,0],[0.5,0],[0.75,0],[1,0],[1,0.25],[1,0.5],[1,0.75],[1,1],[0.75,1],[0.5,1],[0.25,1],[0,1],[0,0.75],[0,0.5],[0,0.25]];outlineConnect=0;gradientColor=none;html=1;whiteSpace=wrap;fontSize=12;fontStyle=0;container=1;pointerEvents=0;collapsible=0;recursiveResize=0;shape=mxgraph.aws4.group;grIcon=mxgraph.aws4.group_security_group;grStroke=0;strokeColor=#7AA116;fillColor=#F2F6E8;verticalAlign=top;align=left;spacingLeft=30;fontColor=#248814;dashed=0;" vertex="1" parent="j8VI0ms2kXu3fHtH9IBc-3">
          <mxGeometry x="260" y="60" width="240" height="170" as="geometry" />
        </mxCell>
        <mxCell id="j8VI0ms2kXu3fHtH9IBc-8" value="&lt;span style=&quot;color: rgb(35, 47, 62); font-family: Helvetica; font-size: 12px; font-style: normal; font-variant-ligatures: normal; font-variant-caps: normal; font-weight: 400; letter-spacing: normal; orphans: 2; text-align: center; text-indent: 0px; text-transform: none; widows: 2; word-spacing: 0px; -webkit-text-stroke-width: 0px; white-space: nowrap; background-color: rgb(251, 251, 251); text-decoration-thickness: initial; text-decoration-style: initial; text-decoration-color: initial; display: inline !important; float: none;&quot;&gt;Web service&amp;nbsp;&lt;/span&gt;&lt;br&gt;&lt;div&gt;&lt;br&gt;&lt;/div&gt;" style="sketch=0;points=[[0,0,0],[0.25,0,0],[0.5,0,0],[0.75,0,0],[1,0,0],[0,1,0],[0.25,1,0],[0.5,1,0],[0.75,1,0],[1,1,0],[0,0.25,0],[0,0.5,0],[0,0.75,0],[1,0.25,0],[1,0.5,0],[1,0.75,0]];outlineConnect=0;fontColor=#232F3E;fillColor=#ED7100;strokeColor=#ffffff;dashed=0;verticalLabelPosition=bottom;verticalAlign=top;align=center;html=1;fontSize=12;fontStyle=0;aspect=fixed;shape=mxgraph.aws4.resourceIcon;resIcon=mxgraph.aws4.ec2;" vertex="1" parent="j8VI0ms2kXu3fHtH9IBc-3">
          <mxGeometry x="390" y="96" width="78" height="78" as="geometry" />
        </mxCell>
        <mxCell id="j8VI0ms2kXu3fHtH9IBc-9" value="" style="sketch=0;outlineConnect=0;fontColor=#232F3E;gradientColor=none;fillColor=#8C4FFF;strokeColor=none;dashed=0;verticalLabelPosition=bottom;verticalAlign=top;align=center;html=1;fontSize=12;fontStyle=0;aspect=fixed;pointerEvents=1;shape=mxgraph.aws4.nat_gateway;" vertex="1" parent="j8VI0ms2kXu3fHtH9IBc-3">
          <mxGeometry x="280" y="100" width="78" height="78" as="geometry" />
        </mxCell>
        <mxCell id="j8VI0ms2kXu3fHtH9IBc-10" value="Private subnet" style="points=[[0,0],[0.25,0],[0.5,0],[0.75,0],[1,0],[1,0.25],[1,0.5],[1,0.75],[1,1],[0.75,1],[0.5,1],[0.25,1],[0,1],[0,0.75],[0,0.5],[0,0.25]];outlineConnect=0;gradientColor=none;html=1;whiteSpace=wrap;fontSize=12;fontStyle=0;container=1;pointerEvents=0;collapsible=0;recursiveResize=0;shape=mxgraph.aws4.group;grIcon=mxgraph.aws4.group_security_group;grStroke=0;strokeColor=#00A4A6;fillColor=#E6F6F7;verticalAlign=top;align=left;spacingLeft=30;fontColor=#147EBA;dashed=0;" vertex="1" parent="j8VI0ms2kXu3fHtH9IBc-3">
          <mxGeometry x="530" y="60" width="240" height="170" as="geometry" />
        </mxCell>
        <mxCell id="j8VI0ms2kXu3fHtH9IBc-11" value="&lt;span style=&quot;color: rgb(35, 47, 62); font-family: Helvetica; font-size: 12px; font-style: normal; font-variant-ligatures: normal; font-variant-caps: normal; font-weight: 400; letter-spacing: normal; orphans: 2; text-align: center; text-indent: 0px; text-transform: none; widows: 2; word-spacing: 0px; -webkit-text-stroke-width: 0px; white-space: nowrap; background-color: rgb(251, 251, 251); text-decoration-thickness: initial; text-decoration-style: initial; text-decoration-color: initial; display: inline !important; float: none;&quot;&gt;&lt;span style=&quot;color: rgb(11, 11, 11); font-family: &amp;quot;Open Sans&amp;quot;, sans-serif; text-align: left; text-wrap: wrap; background-color: rgb(250, 250, 250); font-size: 11px;&quot;&gt;Application Servers&lt;/span&gt;&amp;nbsp;&lt;/span&gt;&lt;br&gt;&lt;div&gt;&lt;br&gt;&lt;/div&gt;" style="sketch=0;points=[[0,0,0],[0.25,0,0],[0.5,0,0],[0.75,0,0],[1,0,0],[0,1,0],[0.25,1,0],[0.5,1,0],[0.75,1,0],[1,1,0],[0,0.25,0],[0,0.5,0],[0,0.75,0],[1,0.25,0],[1,0.5,0],[1,0.75,0]];outlineConnect=0;fontColor=#232F3E;fillColor=#ED7100;strokeColor=#ffffff;dashed=0;verticalLabelPosition=bottom;verticalAlign=top;align=center;html=1;fontSize=12;fontStyle=0;aspect=fixed;shape=mxgraph.aws4.resourceIcon;resIcon=mxgraph.aws4.ec2;" vertex="1" parent="j8VI0ms2kXu3fHtH9IBc-3">
          <mxGeometry x="550" y="96" width="80" height="80" as="geometry" />
        </mxCell>
        <mxCell id="j8VI0ms2kXu3fHtH9IBc-12" style="edgeStyle=orthogonalEdgeStyle;rounded=0;orthogonalLoop=1;jettySize=auto;html=1;entryX=0.5;entryY=1;entryDx=0;entryDy=0;entryPerimeter=0;" edge="1" parent="j8VI0ms2kXu3fHtH9IBc-3" source="j8VI0ms2kXu3fHtH9IBc-9" target="j8VI0ms2kXu3fHtH9IBc-11">
          <mxGeometry relative="1" as="geometry">
            <Array as="points">
              <mxPoint x="319" y="220" />
              <mxPoint x="589" y="220" />
            </Array>
          </mxGeometry>
        </mxCell>
        <mxCell id="j8VI0ms2kXu3fHtH9IBc-13" style="edgeStyle=orthogonalEdgeStyle;rounded=0;orthogonalLoop=1;jettySize=auto;html=1;entryX=0;entryY=0.5;entryDx=0;entryDy=0;entryPerimeter=0;" edge="1" parent="j8VI0ms2kXu3fHtH9IBc-3">
          <mxGeometry relative="1" as="geometry">
            <mxPoint x="630" y="135" as="sourcePoint" />
            <mxPoint x="680" y="135.5" as="targetPoint" />
          </mxGeometry>
        </mxCell>
        <mxCell id="j8VI0ms2kXu3fHtH9IBc-14" value="Availability Zone us-east-1b" style="fillColor=none;strokeColor=#147EBA;dashed=1;verticalAlign=top;fontStyle=0;fontColor=#147EBA;whiteSpace=wrap;html=1;" vertex="1" parent="j8VI0ms2kXu3fHtH9IBc-3">
          <mxGeometry x="230" y="299" width="550" height="210" as="geometry" />
        </mxCell>
        <mxCell id="j8VI0ms2kXu3fHtH9IBc-15" value="Public subnet" style="points=[[0,0],[0.25,0],[0.5,0],[0.75,0],[1,0],[1,0.25],[1,0.5],[1,0.75],[1,1],[0.75,1],[0.5,1],[0.25,1],[0,1],[0,0.75],[0,0.5],[0,0.25]];outlineConnect=0;gradientColor=none;html=1;whiteSpace=wrap;fontSize=12;fontStyle=0;container=1;pointerEvents=0;collapsible=0;recursiveResize=0;shape=mxgraph.aws4.group;grIcon=mxgraph.aws4.group_security_group;grStroke=0;strokeColor=#7AA116;fillColor=#F2F6E8;verticalAlign=top;align=left;spacingLeft=30;fontColor=#248814;dashed=0;" vertex="1" parent="j8VI0ms2kXu3fHtH9IBc-3">
          <mxGeometry x="260" y="329" width="240" height="170" as="geometry" />
        </mxCell>
        <mxCell id="j8VI0ms2kXu3fHtH9IBc-16" value="&lt;span style=&quot;color: rgb(35, 47, 62); font-family: Helvetica; font-size: 12px; font-style: normal; font-variant-ligatures: normal; font-variant-caps: normal; font-weight: 400; letter-spacing: normal; orphans: 2; text-align: center; text-indent: 0px; text-transform: none; widows: 2; word-spacing: 0px; -webkit-text-stroke-width: 0px; white-space: nowrap; background-color: rgb(251, 251, 251); text-decoration-thickness: initial; text-decoration-style: initial; text-decoration-color: initial; display: inline !important; float: none;&quot;&gt;Web service&amp;nbsp;&lt;/span&gt;&lt;br&gt;&lt;div&gt;&lt;br&gt;&lt;/div&gt;" style="sketch=0;points=[[0,0,0],[0.25,0,0],[0.5,0,0],[0.75,0,0],[1,0,0],[0,1,0],[0.25,1,0],[0.5,1,0],[0.75,1,0],[1,1,0],[0,0.25,0],[0,0.5,0],[0,0.75,0],[1,0.25,0],[1,0.5,0],[1,0.75,0]];outlineConnect=0;fontColor=#232F3E;fillColor=#ED7100;strokeColor=#ffffff;dashed=0;verticalLabelPosition=bottom;verticalAlign=top;align=center;html=1;fontSize=12;fontStyle=0;aspect=fixed;shape=mxgraph.aws4.resourceIcon;resIcon=mxgraph.aws4.ec2;" vertex="1" parent="j8VI0ms2kXu3fHtH9IBc-3">
          <mxGeometry x="390" y="365" width="78" height="78" as="geometry" />
        </mxCell>
        <mxCell id="j8VI0ms2kXu3fHtH9IBc-17" value="" style="sketch=0;outlineConnect=0;fontColor=#232F3E;gradientColor=none;fillColor=#8C4FFF;strokeColor=none;dashed=0;verticalLabelPosition=bottom;verticalAlign=top;align=center;html=1;fontSize=12;fontStyle=0;aspect=fixed;pointerEvents=1;shape=mxgraph.aws4.nat_gateway;" vertex="1" parent="j8VI0ms2kXu3fHtH9IBc-3">
          <mxGeometry x="280" y="369" width="78" height="78" as="geometry" />
        </mxCell>
        <mxCell id="j8VI0ms2kXu3fHtH9IBc-18" value="Private subnet" style="points=[[0,0],[0.25,0],[0.5,0],[0.75,0],[1,0],[1,0.25],[1,0.5],[1,0.75],[1,1],[0.75,1],[0.5,1],[0.25,1],[0,1],[0,0.75],[0,0.5],[0,0.25]];outlineConnect=0;gradientColor=none;html=1;whiteSpace=wrap;fontSize=12;fontStyle=0;container=1;pointerEvents=0;collapsible=0;recursiveResize=0;shape=mxgraph.aws4.group;grIcon=mxgraph.aws4.group_security_group;grStroke=0;strokeColor=#00A4A6;fillColor=#E6F6F7;verticalAlign=top;align=left;spacingLeft=30;fontColor=#147EBA;dashed=0;" vertex="1" parent="j8VI0ms2kXu3fHtH9IBc-3">
          <mxGeometry x="530" y="329" width="240" height="170" as="geometry" />
        </mxCell>
        <mxCell id="j8VI0ms2kXu3fHtH9IBc-19" style="edgeStyle=orthogonalEdgeStyle;rounded=0;orthogonalLoop=1;jettySize=auto;html=1;" edge="1" parent="j8VI0ms2kXu3fHtH9IBc-3" source="j8VI0ms2kXu3fHtH9IBc-20" target="j8VI0ms2kXu3fHtH9IBc-24">
          <mxGeometry relative="1" as="geometry" />
        </mxCell>
        <mxCell id="j8VI0ms2kXu3fHtH9IBc-20" value="&lt;span style=&quot;color: rgb(35, 47, 62); font-family: Helvetica; font-size: 12px; font-style: normal; font-variant-ligatures: normal; font-variant-caps: normal; font-weight: 400; letter-spacing: normal; orphans: 2; text-align: center; text-indent: 0px; text-transform: none; widows: 2; word-spacing: 0px; -webkit-text-stroke-width: 0px; white-space: nowrap; background-color: rgb(251, 251, 251); text-decoration-thickness: initial; text-decoration-style: initial; text-decoration-color: initial; display: inline !important; float: none;&quot;&gt;&lt;span style=&quot;color: rgb(11, 11, 11); font-family: &amp;quot;Open Sans&amp;quot;, sans-serif; font-size: 11px; text-align: left; text-wrap: wrap; background-color: rgb(250, 250, 250);&quot;&gt;Application Servers&lt;/span&gt;&amp;nbsp;&lt;/span&gt;&lt;br&gt;&lt;div&gt;&lt;br&gt;&lt;/div&gt;" style="sketch=0;points=[[0,0,0],[0.25,0,0],[0.5,0,0],[0.75,0,0],[1,0,0],[0,1,0],[0.25,1,0],[0.5,1,0],[0.75,1,0],[1,1,0],[0,0.25,0],[0,0.5,0],[0,0.75,0],[1,0.25,0],[1,0.5,0],[1,0.75,0]];outlineConnect=0;fontColor=#232F3E;fillColor=#ED7100;strokeColor=#ffffff;dashed=0;verticalLabelPosition=bottom;verticalAlign=top;align=center;html=1;fontSize=12;fontStyle=0;aspect=fixed;shape=mxgraph.aws4.resourceIcon;resIcon=mxgraph.aws4.ec2;" vertex="1" parent="j8VI0ms2kXu3fHtH9IBc-3">
          <mxGeometry x="550" y="365" width="80" height="80" as="geometry" />
        </mxCell>
        <mxCell id="j8VI0ms2kXu3fHtH9IBc-21" style="edgeStyle=orthogonalEdgeStyle;rounded=0;orthogonalLoop=1;jettySize=auto;html=1;entryX=0.5;entryY=1;entryDx=0;entryDy=0;entryPerimeter=0;" edge="1" parent="j8VI0ms2kXu3fHtH9IBc-3" source="j8VI0ms2kXu3fHtH9IBc-17" target="j8VI0ms2kXu3fHtH9IBc-20">
          <mxGeometry relative="1" as="geometry">
            <Array as="points">
              <mxPoint x="319" y="489" />
              <mxPoint x="589" y="489" />
            </Array>
          </mxGeometry>
        </mxCell>
        <mxCell id="j8VI0ms2kXu3fHtH9IBc-22" value="Auto Scaling group" style="points=[[0,0],[0.25,0],[0.5,0],[0.75,0],[1,0],[1,0.25],[1,0.5],[1,0.75],[1,1],[0.75,1],[0.5,1],[0.25,1],[0,1],[0,0.75],[0,0.5],[0,0.25]];outlineConnect=0;gradientColor=none;html=1;whiteSpace=wrap;fontSize=12;fontStyle=0;container=1;pointerEvents=0;collapsible=0;recursiveResize=0;shape=mxgraph.aws4.groupCenter;grIcon=mxgraph.aws4.group_auto_scaling_group;grStroke=1;strokeColor=#D86613;fillColor=none;verticalAlign=top;align=center;fontColor=#D86613;dashed=1;spacingTop=25;" vertex="1" parent="j8VI0ms2kXu3fHtH9IBc-3">
          <mxGeometry x="370" y="50" width="130" height="460" as="geometry" />
        </mxCell>
        <mxCell id="j8VI0ms2kXu3fHtH9IBc-23" value="Auto Scaling group" style="points=[[0,0],[0.25,0],[0.5,0],[0.75,0],[1,0],[1,0.25],[1,0.5],[1,0.75],[1,1],[0.75,1],[0.5,1],[0.25,1],[0,1],[0,0.75],[0,0.5],[0,0.25]];outlineConnect=0;gradientColor=none;html=1;whiteSpace=wrap;fontSize=12;fontStyle=0;container=1;pointerEvents=0;collapsible=0;recursiveResize=0;shape=mxgraph.aws4.groupCenter;grIcon=mxgraph.aws4.group_auto_scaling_group;grStroke=1;strokeColor=#D86613;fillColor=none;verticalAlign=top;align=center;fontColor=#D86613;dashed=1;spacingTop=25;" vertex="1" parent="j8VI0ms2kXu3fHtH9IBc-3">
          <mxGeometry x="520" y="25" width="130" height="485" as="geometry" />
        </mxCell>
        <mxCell id="j8VI0ms2kXu3fHtH9IBc-24" value="RDS replica" style="outlineConnect=0;dashed=0;verticalLabelPosition=bottom;verticalAlign=top;align=center;html=1;shape=mxgraph.aws3.rds_db_instance_read_replica;fillColor=#2E73B8;gradientColor=none;" vertex="1" parent="j8VI0ms2kXu3fHtH9IBc-3">
          <mxGeometry x="688" y="372" width="49.5" height="66" as="geometry" />
        </mxCell>
        <mxCell id="j8VI0ms2kXu3fHtH9IBc-25" value="RDS master" style="outlineConnect=0;dashed=0;verticalLabelPosition=bottom;verticalAlign=top;align=center;html=1;shape=mxgraph.aws3.rds_db_instance;fillColor=#2E73B8;gradientColor=none;" vertex="1" parent="j8VI0ms2kXu3fHtH9IBc-3">
          <mxGeometry x="680" y="96" width="49.5" height="66" as="geometry" />
        </mxCell>
        <mxCell id="j8VI0ms2kXu3fHtH9IBc-26" style="edgeStyle=orthogonalEdgeStyle;rounded=0;orthogonalLoop=1;jettySize=auto;html=1;" edge="1" parent="j8VI0ms2kXu3fHtH9IBc-2" source="j8VI0ms2kXu3fHtH9IBc-27" target="j8VI0ms2kXu3fHtH9IBc-5">
          <mxGeometry relative="1" as="geometry" />
        </mxCell>
        <mxCell id="j8VI0ms2kXu3fHtH9IBc-27" value="" style="outlineConnect=0;dashed=0;verticalLabelPosition=bottom;verticalAlign=top;align=center;html=1;shape=mxgraph.aws3.internet_gateway;fillColor=#F58536;gradientColor=none;" vertex="1" parent="j8VI0ms2kXu3fHtH9IBc-2">
          <mxGeometry x="-30" y="264" width="69" height="72" as="geometry" />
        </mxCell>
        <mxCell id="j8VI0ms2kXu3fHtH9IBc-28" style="edgeStyle=orthogonalEdgeStyle;rounded=0;orthogonalLoop=1;jettySize=auto;html=1;" edge="1" parent="j8VI0ms2kXu3fHtH9IBc-2" source="j8VI0ms2kXu3fHtH9IBc-9" target="j8VI0ms2kXu3fHtH9IBc-27">
          <mxGeometry relative="1" as="geometry" />
        </mxCell>
        <mxCell id="j8VI0ms2kXu3fHtH9IBc-29" style="edgeStyle=orthogonalEdgeStyle;rounded=0;orthogonalLoop=1;jettySize=auto;html=1;" edge="1" parent="j8VI0ms2kXu3fHtH9IBc-2" source="j8VI0ms2kXu3fHtH9IBc-17" target="j8VI0ms2kXu3fHtH9IBc-27">
          <mxGeometry relative="1" as="geometry" />
        </mxCell>
        <mxCell id="j8VI0ms2kXu3fHtH9IBc-30" value="" style="sketch=0;points=[[0,0,0],[0.25,0,0],[0.5,0,0],[0.75,0,0],[1,0,0],[0,1,0],[0.25,1,0],[0.5,1,0],[0.75,1,0],[1,1,0],[0,0.25,0],[0,0.5,0],[0,0.75,0],[1,0.25,0],[1,0.5,0],[1,0.75,0]];outlineConnect=0;fontColor=#232F3E;fillColor=#8C4FFF;strokeColor=#ffffff;dashed=0;verticalLabelPosition=bottom;verticalAlign=top;align=center;html=1;fontSize=12;fontStyle=0;aspect=fixed;shape=mxgraph.aws4.resourceIcon;resIcon=mxgraph.aws4.route_53;" vertex="1" parent="j8VI0ms2kXu3fHtH9IBc-1">
          <mxGeometry x="32" y="311" width="78" height="78" as="geometry" />
        </mxCell>
        <mxCell id="j8VI0ms2kXu3fHtH9IBc-31" value="" style="outlineConnect=0;dashed=0;verticalLabelPosition=bottom;verticalAlign=top;align=center;html=1;shape=mxgraph.aws3.cloudfront;fillColor=#F58536;gradientColor=none;" vertex="1" parent="j8VI0ms2kXu3fHtH9IBc-1">
          <mxGeometry x="32" y="420" width="76.5" height="93" as="geometry" />
        </mxCell>
        <mxCell id="j8VI0ms2kXu3fHtH9IBc-32" value="&#xa;&lt;span style=&quot;color: rgb(31, 35, 40); font-family: -apple-system, BlinkMacSystemFont, &amp;quot;Segoe UI&amp;quot;, &amp;quot;Noto Sans&amp;quot;, Helvetica, Arial, sans-serif, &amp;quot;Apple Color Emoji&amp;quot;, &amp;quot;Segoe UI Emoji&amp;quot;; font-size: 12px; font-style: normal; font-variant-ligatures: normal; font-variant-caps: normal; font-weight: 400; letter-spacing: normal; orphans: 2; text-align: start; text-indent: 0px; text-transform: none; widows: 2; word-spacing: 0px; -webkit-text-stroke-width: 0px; white-space: nowrap; background-color: rgb(255, 255, 255); text-decoration-thickness: initial; text-decoration-style: initial; text-decoration-color: initial; display: inline !important; float: none;&quot;&gt;S3 (10 terabyte)&lt;/span&gt;&#xa;&#xa;" style="sketch=0;points=[[0,0,0],[0.25,0,0],[0.5,0,0],[0.75,0,0],[1,0,0],[0,1,0],[0.25,1,0],[0.5,1,0],[0.75,1,0],[1,1,0],[0,0.25,0],[0,0.5,0],[0,0.75,0],[1,0.25,0],[1,0.5,0],[1,0.75,0]];outlineConnect=0;fontColor=#232F3E;fillColor=#7AA116;strokeColor=#ffffff;dashed=0;verticalLabelPosition=bottom;verticalAlign=top;align=center;html=1;fontSize=12;fontStyle=0;aspect=fixed;shape=mxgraph.aws4.resourceIcon;resIcon=mxgraph.aws4.s3;" vertex="1" parent="j8VI0ms2kXu3fHtH9IBc-1">
          <mxGeometry x="32" y="560" width="78" height="78" as="geometry" />
        </mxCell>
        <mxCell id="j8VI0ms2kXu3fHtH9IBc-33" style="edgeStyle=orthogonalEdgeStyle;rounded=0;orthogonalLoop=1;jettySize=auto;html=1;entryX=0.5;entryY=0;entryDx=0;entryDy=0;entryPerimeter=0;" edge="1" parent="j8VI0ms2kXu3fHtH9IBc-1" source="j8VI0ms2kXu3fHtH9IBc-30" target="j8VI0ms2kXu3fHtH9IBc-31">
          <mxGeometry relative="1" as="geometry" />
        </mxCell>
        <mxCell id="j8VI0ms2kXu3fHtH9IBc-34" style="edgeStyle=orthogonalEdgeStyle;rounded=0;orthogonalLoop=1;jettySize=auto;html=1;entryX=0.5;entryY=0;entryDx=0;entryDy=0;entryPerimeter=0;" edge="1" parent="j8VI0ms2kXu3fHtH9IBc-1" source="j8VI0ms2kXu3fHtH9IBc-31" target="j8VI0ms2kXu3fHtH9IBc-32">
          <mxGeometry relative="1" as="geometry" />
        </mxCell>
        <mxCell id="j8VI0ms2kXu3fHtH9IBc-35" style="edgeStyle=orthogonalEdgeStyle;rounded=0;orthogonalLoop=1;jettySize=auto;html=1;entryX=0;entryY=0.5;entryDx=0;entryDy=0;entryPerimeter=0;" edge="1" parent="j8VI0ms2kXu3fHtH9IBc-1" source="j8VI0ms2kXu3fHtH9IBc-30" target="j8VI0ms2kXu3fHtH9IBc-27">
          <mxGeometry relative="1" as="geometry" />
        </mxCell>
        <mxCell id="j8VI0ms2kXu3fHtH9IBc-36" style="edgeStyle=orthogonalEdgeStyle;rounded=0;orthogonalLoop=1;jettySize=auto;html=1;" edge="1" parent="1" source="j8VI0ms2kXu3fHtH9IBc-37" target="j8VI0ms2kXu3fHtH9IBc-30">
          <mxGeometry relative="1" as="geometry" />
        </mxCell>
        <mxCell id="j8VI0ms2kXu3fHtH9IBc-37" value="" style="sketch=0;outlineConnect=0;fontColor=#232F3E;gradientColor=none;fillColor=#232F3D;strokeColor=none;dashed=0;verticalLabelPosition=bottom;verticalAlign=top;align=center;html=1;fontSize=12;fontStyle=0;aspect=fixed;pointerEvents=1;shape=mxgraph.aws4.users;" vertex="1" parent="1">
          <mxGeometry x="40" y="130" width="78" height="78" as="geometry" />
        </mxCell>
        <mxCell id="j8VI0ms2kXu3fHtH9IBc-38" value="Client" style="sketch=0;outlineConnect=0;fontColor=#232F3E;gradientColor=none;strokeColor=#232F3E;fillColor=#ffffff;dashed=0;verticalLabelPosition=bottom;verticalAlign=top;align=center;html=1;fontSize=12;fontStyle=0;aspect=fixed;shape=mxgraph.aws4.resourceIcon;resIcon=mxgraph.aws4.client;" vertex="1" parent="1">
          <mxGeometry x="49" y="390" width="60" height="60" as="geometry" />
        </mxCell>
        <mxCell id="j8VI0ms2kXu3fHtH9IBc-39" style="edgeStyle=orthogonalEdgeStyle;rounded=0;orthogonalLoop=1;jettySize=auto;html=1;entryX=0;entryY=0.5;entryDx=0;entryDy=0;entryPerimeter=0;" edge="1" parent="1" source="j8VI0ms2kXu3fHtH9IBc-38" target="j8VI0ms2kXu3fHtH9IBc-30">
          <mxGeometry relative="1" as="geometry" />
        </mxCell>
      </root>
    </mxGraphModel>
  </diagram>
</mxfile>
